<?xml version="1.0" encoding="utf-8"?>
<!-- Generator: Adobe Illustrator 25.0.0, SVG Export Plug-In . SVG Version: 6.00 Build 0)  -->
<svg version="1.1" xmlns="http://www.w3.org/2000/svg" xmlns:xlink="http://www.w3.org/1999/xlink" x="0px" y="0px"
	 viewBox="0 0 960 960" style="enable-background:new 0 0 960 960;" xml:space="preserve">
<style type="text/css">
	.st0{fill-rule:evenodd;clip-rule:evenodd;fill:url(#SVGID_1_);}
	.st1{fill-rule:evenodd;clip-rule:evenodd;fill:url(#SVGID_2_);}
	.st2{fill-rule:evenodd;clip-rule:evenodd;fill:#FFFFFF;}
	.st3{fill-rule:evenodd;clip-rule:evenodd;fill:url(#SVGID_3_);}
	.st4{fill-rule:evenodd;clip-rule:evenodd;fill:url(#SVGID_4_);}
	.st5{fill:#FFFFFF;}
	.st6{font-family:'MyriadPro-Regular';}
	.st7{font-size:18.2286px;}
</style>
<g id="Layer_2">
</g>
<g id="Layer_1">
	<g>
		<g>
			<g>
				
					<linearGradient id="SVGID_1_" gradientUnits="userSpaceOnUse" x1="26752.5039" y1="-19971.8613" x2="28956.5039" y2="-21823.8613" gradientTransform="matrix(2.834621e-02 0 0 -2.834621e-02 -261.3749 -234.1058)">
					<stop  offset="0" style="stop-color:#F74E17"/>
					<stop  offset="0.451" style="stop-color:#F78614"/>
					<stop  offset="1" style="stop-color:#F7BE11"/>
				</linearGradient>
				<path class="st0" d="M570.6,440.7c0,0,7.8-42.7-30.1-68.5C502.5,346.4,485,361,485,361l61-34.6
					C546,326.4,599.7,367.8,570.6,440.7L570.6,440.7z"/>
				
					<linearGradient id="SVGID_2_" gradientUnits="userSpaceOnUse" x1="23255.791" y1="-21205.2246" x2="32878.7891" y2="-17708.2246" gradientTransform="matrix(2.834621e-02 0 0 -2.834621e-02 -261.3749 -234.1058)">
					<stop  offset="0" style="stop-color:#F74E17"/>
					<stop  offset="0.4706" style="stop-color:#EFA415"/>
					<stop  offset="1" style="stop-color:#F74E17"/>
				</linearGradient>
				<path class="st1" d="M564.2,346.9c0,0-31.6-24.8-75.3,18.5c-86.7,85.7-133.5-9-60.7-54.4c0,0,49.1-31.1,107.4,6.8
					C535.6,317.8,557.5,334.3,564.2,346.9L564.2,346.9z"/>
				<path class="st2" d="M399.1,387.7c0,0,2.6-13.4,15.8-28.8l-3.3-18.7l8.8,12.1c0,0,17.5-19.7,32.9-25.2l-16.4,17.5l14.3,2.2
					l-18.7,2.2c0,0-11,12.1-17.5,27.4l19.7,3.3l-21.9,5.5c-0.7,3.9-1.3,7.9-2,11.8C407,395.6,402.4,392.2,399.1,387.7L399.1,387.7z"
					/>
			</g>
			<g>
				
					<linearGradient id="SVGID_3_" gradientUnits="userSpaceOnUse" x1="23231.3281" y1="-23875.7422" x2="25417.3281" y2="-21159.7422" gradientTransform="matrix(2.834621e-02 0 0 -2.834621e-02 -261.3749 -234.1058)">
					<stop  offset="0" style="stop-color:#A0E417"/>
					<stop  offset="0.4784" style="stop-color:#58A30C"/>
					<stop  offset="1" style="stop-color:#0F6101"/>
				</linearGradient>
				<path class="st3" d="M384.9,365c0,0-7.8,42.7,30.1,68.5c37.9,25.7,55.4,11.2,55.4,11.2l-61,34.6
					C409.4,479.2,355.8,437.8,384.9,365L384.9,365z"/>
				
					<linearGradient id="SVGID_4_" gradientUnits="userSpaceOnUse" x1="23435.5547" y1="-23059.127" x2="29193.5547" y2="-25252.127" gradientTransform="matrix(2.834621e-02 0 0 -2.834621e-02 -261.3749 -234.1058)">
					<stop  offset="0" style="stop-color:#A0E417"/>
					<stop  offset="0.5686" style="stop-color:#0F6101"/>
					<stop  offset="1" style="stop-color:#47831E"/>
				</linearGradient>
				<path class="st4" d="M391.2,458.7c0,0,31.6,24.8,75.3-18.5c86.7-85.7,133.5,9,60.7,54.4c0,0-49.1,31.1-107.4-6.8
					C419.8,487.9,398,471.4,391.2,458.7L391.2,458.7z"/>
				<path class="st2" d="M556.4,418c0,0-2.6,13.4-15.8,28.8l3.3,18.7l-8.8-12.1c0,0-17.5,19.7-32.9,25.2l16.4-17.5l-14.3-2.2
					l18.7-2.2c0,0,11-12.1,17.5-27.4l-19.7-3.3l21.9-5.5c0.7-3.9,1.3-7.9,2-11.8C548.4,410.1,552.4,412.8,556.4,418L556.4,418z"/>
			</g>
			<text transform="matrix(1 0 0 1 597.7725 314.203)" class="st5 st6 st7">TM</text>
		</g>
	</g>
</g>
</svg>
